<?xml version="1.0" encoding="utf-8"?>
<!-- Generator: Adobe Illustrator 19.1.0, SVG Export Plug-In . SVG Version: 6.00 Build 0)  -->
<svg version="1.1" id="Layer_1" xmlns="http://www.w3.org/2000/svg" xmlns:xlink="http://www.w3.org/1999/xlink" x="0px" y="0px"
	 viewBox="473.7 81.8 56.7 56.7" style="enable-background:new 473.7 81.8 56.7 56.7;" xml:space="preserve">
<path d="M502,81.8c-15.7,0-28.3,12.6-28.3,28.3s12.6,28.3,28.3,28.3c15.7,0,28.3-12.6,28.3-28.3S517.7,81.8,502,81.8z M510.4,98.5
	c0,0-2.9,0-3.9,0c-1.5,0-1.7,0.6-1.7,2c0,1.2,0,3.5,0,3.5h5.7l-0.6,6.1h-5.1v18.3h-7.3v-18.3h-3.8v-6.3h3.8c0,0,0-0.9,0-4.9
	c0-4.7,2.5-7,7.8-7c0.9,0,5.1,0,5.1,0V98.5L510.4,98.5z"/>
</svg>
