<?xml version="1.0" encoding="utf-8"?>
<!-- Generator: Adobe Illustrator 23.0.1, SVG Export Plug-In . SVG Version: 6.00 Build 0)  -->
<svg version="1.1" id="Layer_1" xmlns="http://www.w3.org/2000/svg" xmlns:xlink="http://www.w3.org/1999/xlink" x="0px" y="0px"
	 viewBox="0 0 82 72" style="enable-background:new 0 0 82 72;" xml:space="preserve">
<style type="text/css">
	.st0{display:none;fill:#267CB5;}
	.st1{fill:#FFFFFF;}
</style>
<circle class="st0" cx="41" cy="36" r="64"/>
<g>
	<path class="st1" d="M81,0H31c-0.6,0-1,0.4-1,1v12c0,0.6,0.4,1,1,1h50c0.6,0,1-0.4,1-1V1C82,0.4,81.6,0,81,0z"/>
	<path class="st1" d="M81,29H31c-0.6,0-1,0.4-1,1v12c0,0.6,0.4,1,1,1h50c0.6,0,1-0.4,1-1V30C82,29.4,81.6,29,81,29z"/>
	<path class="st1" d="M81,58H31c-0.6,0-1,0.4-1,1v12c0,0.6,0.4,1,1,1h50c0.6,0,1-0.4,1-1V59C82,58.4,81.6,58,81,58z"/>
	<path class="st1" d="M13,0H1C0.4,0,0,0.4,0,1v12c0,0.6,0.4,1,1,1h12c0.6,0,1-0.4,1-1V1C14,0.4,13.6,0,13,0z"/>
	<path class="st1" d="M13,29H1c-0.6,0-1,0.4-1,1v12c0,0.6,0.4,1,1,1h12c0.6,0,1-0.4,1-1V30C14,29.4,13.6,29,13,29z"/>
	<path class="st1" d="M13,58H1c-0.6,0-1,0.4-1,1v12c0,0.6,0.4,1,1,1h12c0.6,0,1-0.4,1-1V59C14,58.4,13.6,58,13,58z"/>
</g>
</svg>
