<?xml version="1.0" encoding="utf-8"?>
<!-- Generator: Adobe Illustrator 21.1.0, SVG Export Plug-In . SVG Version: 6.00 Build 0)  -->
<svg version="1.1" xmlns="http://www.w3.org/2000/svg" xmlns:xlink="http://www.w3.org/1999/xlink" x="0px" y="0px"
	 viewBox="0 0 128.3 84.8" style="enable-background:new 0 0 128.3 84.8;" xml:space="preserve">
<style type="text/css">
	
	.st1{display:inline;fill:#17E23D;}
	.st2{fill:#17E23D;}
	.st3{display:inline;}
	.st4{display:none;fill:#FFFFFF;stroke:#000000;stroke-miterlimit:10;}
</style>

<g id="Layer_5_copy">
	<path class="st2" d="M59.5,36.8C59.5,36.8,59.5,36.8,59.5,36.8c-0.2,3-0.8,7.1-2.5,11.8c-1.9,5.1-4.5,8.9-6.5,11.3
		c-2.7,3.8-7.1,9-13.7,13.7c-9.5,6.7-19.3,8.9-24.6,9.8c-0.5-0.4-0.7-0.9-1.2-1.3c2.7-2,7.3-6,10.5-12.5c1.9-3.9,2.8-7.5,3.2-10.2
		C11.3,56.6,1.2,44.7,1.2,30.4c0-16.3,13.2-29.5,29.5-29.5c16.3,0,29.5,13.2,29.5,29.5C60.2,32.6,59.9,34.7,59.5,36.8z"/>
	<path class="st2" d="M126.5,36.8C126.5,36.8,126.5,36.8,126.5,36.8c-0.2,3-0.8,7.1-2.5,11.8c-1.9,5.1-4.5,8.9-6.5,11.3
		c-2.7,3.8-7.1,9-13.7,13.7c-9.5,6.7-19.3,8.9-24.6,9.8c-0.5-0.4-0.7-0.9-1.2-1.3c2.7-2,7.3-6,10.5-12.5c1.9-3.9,2.8-7.5,3.2-10.2
		c-13.5-2.7-23.6-14.6-23.6-28.9c0-16.3,13.2-29.5,29.5-29.5c16.3,0,29.5,13.2,29.5,29.5C127.2,32.6,126.9,34.7,126.5,36.8z"/>
</g>
</svg>
