<?xml version="1.0" encoding="utf-8"?>
<!-- Generator: Adobe Illustrator 19.1.0, SVG Export Plug-In . SVG Version: 6.00 Build 0)  -->
<svg version="1.1" id="Layer_1" xmlns="http://www.w3.org/2000/svg" xmlns:xlink="http://www.w3.org/1999/xlink" x="0px" y="0px"
	 viewBox="186.7 81.8 56.7 56.7" style="enable-background:new 186.7 81.8 56.7 56.7;" xml:space="preserve">
<path id="soundcloud-circle-icon" d="M215,81.8c-15.7,0-28.3,12.7-28.3,28.3s12.7,28.3,28.3,28.3s28.3-12.7,28.3-28.3
	S230.7,81.8,215,81.8z M196.9,115.3c-0.7-0.8-1.1-1.8-1.1-2.9c0-1.1,0.4-2.1,1.1-2.9V115.3z M198.9,116.6c-0.4-0.1-0.8-0.3-1.2-0.6
	v-7.2c0.4-0.3,0.7-0.5,1.2-0.6V116.6z M201.1,116.8h-0.8c-0.2,0-0.4,0-0.6,0v-8.8c0.2,0,0.4,0,0.6,0c0.3,0,0.5,0,0.8,0.1V116.8z
	 M203.5,116.8H202v-8.6c0.3,0.1,0.5,0.2,0.8,0.4c0.2-0.7,0.4-1.3,0.8-1.9V116.8z M205.9,116.8h-1.5v-11.2c0.4-0.5,1-0.9,1.5-1.2
	V116.8z M208.4,116.8h-1.5V104c0.5-0.2,1-0.3,1.5-0.4V116.8z M210.8,116.8h-1.5v-13.3c0.5,0,1,0.1,1.5,0.2V116.8z M213.3,116.8h-1.5
	V104c0.2,0.1,0.4,0.2,0.6,0.3c0.3-0.4,0.6-0.9,0.9-1.2L213.3,116.8L213.3,116.8z M215.7,116.8h-1.5v-14.5c0.5-0.4,1-0.7,1.5-1V116.8
	z M229.5,116.8h-12.9v-15.9c0.5-0.2,1-0.3,1.5-0.4c0.4-0.1,0.8-0.1,1.3-0.1c4.3,0,7.9,3.3,8.2,7.6c0.6-0.3,1.2-0.4,1.9-0.4
	c2.6,0,4.6,2.1,4.6,4.6C234.1,114.7,232.1,116.8,229.5,116.8z"/>
</svg>
