<?xml version="1.0" encoding="utf-8"?>
<!-- Generator: Adobe Illustrator 19.1.0, SVG Export Plug-In . SVG Version: 6.00 Build 0)  -->
<svg version="1.1" id="Capa_1" xmlns="http://www.w3.org/2000/svg" xmlns:xlink="http://www.w3.org/1999/xlink" x="0px" y="0px"
	 viewBox="73.3 -31.6 283.5 283.5" style="enable-background:new 73.3 -31.6 283.5 283.5;" xml:space="preserve">
<g>
	<path d="M115.1,130.2c-2.3,10.6,4.2,25.1,10,30.1v-50.2C119.3,115.1,116.8,122.3,115.1,130.2z M286.6,105.6c-3.5,0-6.8,0.7-9.9,1.8
		c-1.6-26.4-24.3-47.4-52.4-47.4c-18,0-39.7,7-49.2,20.1v80.3h111.4c15.9,0,28.8-12.2,28.8-27.4
		C315.4,117.8,302.5,105.6,286.6,105.6z M155.2,160.3h10V90h-10V160.3z M135.1,160.3h10v-60.2h-10V160.3z"/>
</g>
</svg>
