<?xml version="1.0" encoding="utf-8"?>
<!-- Generator: Adobe Illustrator 19.1.0, SVG Export Plug-In . SVG Version: 6.00 Build 0)  -->
<svg version="1.1" id="Capa_1" xmlns="http://www.w3.org/2000/svg" xmlns:xlink="http://www.w3.org/1999/xlink" x="0px" y="0px"
	 viewBox="172.3 -31.6 283.5 283.5" style="enable-background:new 172.3 -31.6 283.5 283.5;" xml:space="preserve">
<path d="M381.1,79c0-1.6-0.1-3.1-0.1-4.7c6.7-5,12.6-11.3,17.2-18.6c-6.2,2.8-12.8,4.7-19.8,5.4c7.2-4.4,12.6-11.4,15.2-19.8
	c-6.7,4-14.1,7-21.9,8.5c-6.3-7.2-15.3-11.7-25.3-11.9c-19.1-0.3-34.6,15.8-34.6,36c0,2.9,0.3,5.7,0.9,8.3
	c-28.7-1.8-54.2-16.8-71.3-39.4c-3,5.4-4.7,11.7-4.7,18.5c0,12.8,6.1,24.2,15.4,30.9c-5.7-0.3-11-2-15.6-4.8c0,0.2,0,0.3,0,0.5
	c0,17.9,11.9,32.9,27.7,36.4c-2.9,0.8-6,1.2-9.1,1.2c-2.2,0-4.4-0.3-6.5-0.7c4.4,14.7,17.2,25.4,32.3,25.7
	c-11.8,9.8-26.7,15.7-42.9,15.6c-2.8,0-5.5-0.2-8.2-0.5c15.3,10.5,33.5,16.6,53,16.6C346.4,182.3,381.1,126.9,381.1,79z"/>
</svg>
