<?xml version="1.0" encoding="utf-8"?>
<!-- Generator: Adobe Illustrator 19.1.0, SVG Export Plug-In . SVG Version: 6.00 Build 0)  -->
<svg version="1.1" id="Layer_1" xmlns="http://www.w3.org/2000/svg" xmlns:xlink="http://www.w3.org/1999/xlink" x="0px" y="0px"
	 viewBox="186.7 81.8 56.7 56.7" style="enable-background:new 186.7 81.8 56.7 56.7;" xml:space="preserve">
<style type="text/css">
	.st0{fill:#1D1D1B;}
</style>
<path class="st0" d="M215,81.7c-15.7,0-28.3,12.8-28.3,28.5c0,15.7,12.7,28.3,28.3,28.3s28.3-12.7,28.3-28.3
	C243.3,94.5,230.7,81.7,215,81.7z M229.1,111.1c-3.1,12.5-23.7,17.7-33.2,4.8c3.6,3.5,10,3.8,14-0.4c-8.4-3.1-8.5-13.8-8.3-15.3
	c4.5,1.7,7.3,3,9.7,4.3c0.8,0.5,1.8,1.3,2.9,2.3c1.4-3.6,3.2-9.5,6.6-9.9c0,0.4-1.1,1.9,0.2,3c3.6-0.4,7,2.6,8,6.3
	c0.1,0.3,0.1,0.6,0.2,0.9c1.3,0.5,4.9,0.7,4.9,0.7S231.4,111.1,229.1,111.1z"/>
</svg>
